<?xml version="1.0" standalone="no"?>
<svg xmlns="http://www.w3.org/2000/svg" viewBox="0 0 1440 320">
    <path fill="#f3f4f5" fill-opacity="1" d="M0,160L34.3,160C68.6,160,137,160,206,160C274.3,160,343,160,411,176C480,192,549,224,617,240C685.7,256,754,256,823,256C891.4,256,960,256,1029,240C1097.1,224,1166,192,1234,170.7C1302.9,149,1371,139,1406,133.3L1440,128L1440,320L1405.7,320C1371.4,320,1303,320,1234,320C1165.7,320,1097,320,1029,320C960,320,891,320,823,320C754.3,320,686,320,617,320C548.6,320,480,320,411,320C342.9,320,274,320,206,320C137.1,320,69,320,34,320L0,320Z"></path>
    <path fill="#d2d7e0" fill-opacity="1" d="M0,160L34.3,160C68.6,160,137,160,206,160C274.3,160,343,160,411,176C480,192,549,224,617,240C685.7,256,754,256,823,256C891.4,256,960,256,1029,240C1097.1,224,1166,192,1234,170.7C1302.9,149,1371,139,1406,133.3L1440,128L1440,320L1405.7,320C1371.4,320,1303,320,1234,320C1165.7,320,1097,320,1029,320C960,320,891,320,823,320C754.3,320,686,320,617,320C548.6,320,480,320,411,320C342.9,320,274,320,206,320C137.1,320,69,320,34,320L0,320Z" transform="translate(0, 30)"></path>
</svg>