<?xml version="1.0" standalone="no"?>
<svg xmlns="http://www.w3.org/2000/svg" viewBox="0 0 1440 320">
    <!-- <path fill="#f3f4f5" fill-opacity="1" d="M0,192L48,197.3C96,203,192,213,288,192C384,171,480,117,576,112C672,107,768,149,864,154.7C960,160,1056,128,1152,117.3C1248,107,1344,117,1392,122.7L1440,128L1440,0L1392,0C1344,0,1248,0,1152,0C1056,0,960,0,864,0C768,0,672,0,576,0C480,0,384,0,288,0C192,0,96,0,48,0L0,0Z"></path> -->
    <path fill="#f3f4f5" fill-opacity="1" d="M0,160L48,138.7C96,117,192,75,288,69.3C384,64,480,96,576,90.7C672,85,768,43,864,32C960,21,1056,43,1152,90.7C1248,139,1344,213,1392,250.7L1440,288L1440,0L1392,0C1344,0,1248,0,1152,0C1056,0,960,0,864,0C768,0,672,0,576,0C480,0,384,0,288,0C192,0,96,0,48,0L0,0Z" transform="translate(0,30)"></path>
    <path fill="#d2d7e0" fill-opacity="1" d="M0,160L48,138.7C96,117,192,75,288,69.3C384,64,480,96,576,90.7C672,85,768,43,864,32C960,21,1056,43,1152,90.7C1248,139,1344,213,1392,250.7L1440,288L1440,0L1392,0C1344,0,1248,0,1152,0C1056,0,960,0,864,0C768,0,672,0,576,0C480,0,384,0,288,0C192,0,96,0,48,0L0,0Z" transform="translate(0,0)"></path>
</svg>