<?xml version="1.0" standalone="no"?>
<svg xmlns="http://www.w3.org/2000/svg" viewBox="0 0 1440 320">
    <path fill="#d2d7e0" fill-opacity="1" d="M0,96L48,133.3C96,171,192,245,288,261.3C384,277,480,235,576,218.7C672,203,768,213,864,218.7C960,224,1056,224,1152,202.7C1248,181,1344,139,1392,117.3L1440,96L1440,320L1392,320C1344,320,1248,320,1152,320C1056,320,960,320,864,320C768,320,672,320,576,320C480,320,384,320,288,320C192,320,96,320,48,320L0,320Z" transform="translate(0,-60)"></path>
    <path fill="#7787a1" fill-opacity="1" d="M0,96L48,133.3C96,171,192,245,288,261.3C384,277,480,235,576,218.7C672,203,768,213,864,218.7C960,224,1056,224,1152,202.7C1248,181,1344,139,1392,117.3L1440,96L1440,320L1392,320C1344,320,1248,320,1152,320C1056,320,960,320,864,320C768,320,672,320,576,320C480,320,384,320,288,320C192,320,96,320,48,320L0,320Z" transform="translate(0,-30)"></path>
    <path fill="#49556a" fill-opacity="1" d="M0,96L48,133.3C96,171,192,245,288,261.3C384,277,480,235,576,218.7C672,203,768,213,864,218.7C960,224,1056,224,1152,202.7C1248,181,1344,139,1392,117.3L1440,96L1440,320L1392,320C1344,320,1248,320,1152,320C1056,320,960,320,864,320C768,320,672,320,576,320C480,320,384,320,288,320C192,320,96,320,48,320L0,320Z" transform="translate(0,0)"></path>
    <path fill="#353e4d" fill-opacity="1" d="M0,96L48,133.3C96,171,192,245,288,261.3C384,277,480,235,576,218.7C672,203,768,213,864,218.7C960,224,1056,224,1152,202.7C1248,181,1344,139,1392,117.3L1440,96L1440,320L1392,320C1344,320,1248,320,1152,320C1056,320,960,320,864,320C768,320,672,320,576,320C480,320,384,320,288,320C192,320,96,320,48,320L0,320Z" transform="translate(0,30)"></path>
</svg>