<?xml version="1.0" standalone="no"?>
<svg viewBox="0 0 200 200" xmlns="http://www.w3.org/2000/svg">
    <path fill="#f3f4f5" d="M43.2,-77.5C53.7,-68.7,58.4,-52.6,56.6,-38.4C54.8,-24.3,46.5,-12.1,45.6,-0.5C44.7,11.1,51.2,22.2,53,36.4C54.8,50.6,52,67.9,42.4,71.3C32.8,74.6,16.4,63.9,1,62.2C-14.4,60.4,-28.7,67.5,-38.2,64.1C-47.8,60.7,-52.4,46.9,-58.9,34.4C-65.3,22,-73.6,11,-77.3,-2.1C-81,-15.3,-80.1,-30.5,-70.1,-36.8C-60.1,-43.1,-40.9,-40.3,-27.7,-47.6C-14.5,-54.8,-7.2,-72,4.5,-79.8C16.3,-87.7,32.6,-86.3,43.2,-77.5Z" transform="translate(150 150), scale(1.1)" />
</svg>
